<mxfile host="app.diagrams.net" modified="2023-10-16T21:39:29.498Z" agent="Mozilla/5.0 (X11; Linux x86_64; rv:109.0) Gecko/20100101 Firefox/118.0" version="22.0.4" etag="LmeKW0S3dCLd4N1PBdJ5" type="github">
  <diagram name="Page-1" id="M5pg9lmxSTbdr3o7JcyY">
    <mxGraphModel>
      <root>
        <mxCell id="0" />
        <mxCell id="1" parent="0" />
      </root>
    </mxGraphModel>
  </diagram>
</mxfile>
